<?xml version="1.0" standalone="no"?>
<!DOCTYPE svg PUBLIC "-//W3C//DTD SVG 20010904//EN"
 "http://www.w3.org/TR/2001/REC-SVG-20010904/DTD/svg10.dtd">
<svg version="1.0" xmlns="http://www.w3.org/2000/svg"
 width="719.000000pt" height="719.000000pt" viewBox="0 0 719.000000 719.000000"
 preserveAspectRatio="xMidYMid meet">
<metadata>
Created by potrace 1.14, written by Peter Selinger 2001-2017
</metadata>
<g transform="translate(0.000000,719.000000) scale(0.100000,-0.100000)"
fill="#000000" stroke="none">
<path d="M3527 7144 c-1 -1 -105 -4 -232 -8 -321 -9 -430 -18 -437 -35 -2 -5
-33 -42 -69 -82 -116 -129 -233 -268 -343 -409 -37 -47 -79 -100 -94 -119 -35
-45 -211 -283 -220 -298 -4 -6 -32 -14 -62 -17 -30 -4 -66 -9 -80 -11 -14 -3
-50 -7 -80 -10 -30 -3 -80 -9 -110 -15 -30 -5 -75 -12 -100 -15 -38 -5 -92
-14 -185 -30 -133 -22 -499 -97 -548 -111 -14 -5 -81 -97 -142 -196 -149 -245
-205 -340 -205 -348 0 -6 -4 -10 -10 -10 -5 0 -10 -5 -10 -10 0 -6 -21 -48
-47 -93 -71 -125 -145 -266 -233 -444 l-80 -162 34 -108 c65 -206 184 -544
225 -638 5 -11 43 -104 85 -207 l77 -186 -16 -39 c-142 -332 -315 -807 -380
-1040 l-17 -61 99 -199 c134 -267 276 -520 421 -753 67 -108 179 -279 192
-293 9 -10 177 -49 302 -71 15 -3 63 -11 105 -20 43 -8 94 -17 113 -20 19 -3
46 -8 60 -11 21 -4 94 -15 268 -40 18 -3 54 -7 80 -10 26 -3 54 -8 62 -10 15
-4 142 -18 168 -18 8 0 24 -14 38 -31 13 -17 88 -116 168 -221 79 -104 153
-199 163 -210 10 -11 47 -56 82 -100 60 -73 211 -248 292 -337 l34 -36 125 -9
c164 -11 888 -10 1060 1 74 4 157 10 184 11 44 3 53 7 88 46 21 24 51 58 66
74 26 28 183 212 209 245 6 8 42 53 80 100 79 98 274 355 317 417 39 57 42 60
111 67 33 3 69 8 80 10 11 2 47 7 80 11 32 4 68 9 79 11 11 2 38 6 61 9 22 3
63 10 90 15 28 5 68 12 90 15 74 12 100 17 200 37 55 11 114 22 130 24 17 3
88 19 159 37 l129 32 48 75 c27 41 63 99 81 129 18 30 42 69 53 86 148 235
515 921 515 964 0 16 -146 458 -192 581 -68 182 -93 245 -123 315 -7 17 -32
75 -55 131 l-42 101 82 204 c120 298 265 712 311 889 l12 46 -84 169 c-106
215 -165 325 -295 548 -38 65 -78 134 -88 153 -49 86 -242 379 -251 380 -6 0
-23 3 -40 7 -16 4 -39 9 -50 12 -11 2 -69 15 -130 28 -60 14 -126 27 -145 31
-19 3 -46 8 -60 11 -35 7 -187 33 -235 40 -22 3 -51 8 -65 10 -45 8 -400 55
-413 55 -7 0 -42 39 -77 88 -36 48 -67 89 -70 92 -3 3 -25 32 -49 65 -124 167
-403 503 -521 626 l-65 68 -100 5 c-172 9 -653 24 -658 20z"/>
</g>
</svg>
